<svg width="64" height="64" viewBox="0 0 64 64" fill="none" xmlns="http://www.w3.org/2000/svg">
<path d="M27.712 51C27.84 51 27.936 50.984 28 50.952L28.336 50.904H28.432C28.944 50.136 29.584 48.888 30.352 47.16L31.168 45.336L33.568 40.344L34.048 39.288C34.336 38.808 34.528 38.424 34.624 38.136C34.72 37.848 35.072 37.304 35.68 36.504C36.256 35.736 36.544 35.112 36.544 34.632C36.544 34.28 36.176 33.192 35.44 31.368L32.944 25.656C32.08 23.768 31.536 22.472 31.312 21.768C31.312 21.672 31.216 21.368 31.024 20.856C30.768 19.768 30.464 18.92 30.112 18.312C29.92 17.928 29.712 17.72 29.488 17.688L28.864 18.168C28.992 19.128 29.376 20.392 30.016 21.96C30.624 23.496 31.328 25.064 32.128 26.664C32.896 28.2 33.552 29.704 34.096 31.176C34.608 32.616 34.864 33.752 34.864 34.584C34.864 34.84 33.776 37.208 31.6 41.688C29.392 46.168 28.016 48.856 27.472 49.752L27.04 50.088C27.104 50.28 27.2 50.488 27.328 50.712C27.456 50.904 27.584 51 27.712 51Z" fill="#4A4A4A"/>
</svg>
