<svg width="112" height="97" viewBox="0 0 112 97" fill="none" xmlns="http://www.w3.org/2000/svg">
<path d="M49.8557 59.3551V49.1392H50.5306V59.3551H49.8557ZM53.4022 27.4682L54.0236 27.7648L53.9426 27.965L53.853 28.1606L53.7558 28.3501L53.6511 28.535L53.5404 28.715L53.4238 28.891L53.3018 29.0627L53.1755 29.2309L53.0453 29.3955L52.9125 29.5572L52.7765 29.7158L52.6383 29.8721L52.499 30.0267L52.3586 30.1782L52.2182 30.3286L52.0779 30.4771L51.9386 30.6245L51.8009 30.7707L51.6649 30.9163L51.5315 31.0613L51.4014 31.2057L51.2751 31.3496L51.1531 31.4934L51.0359 31.6366L50.9247 31.7792L50.8189 31.9225L50.7195 32.0657L50.6278 32.2089L50.5435 32.3521L50.4669 32.4954L50.3989 32.6392L50.3395 32.7842L49.7197 32.4835L49.7953 32.2998L49.88 32.1209L49.9729 31.9462L50.0733 31.7757L50.1802 31.6093L50.293 31.4458L50.4113 31.2854L50.5344 31.1273L50.6612 30.9716L50.7919 30.8183L50.9252 30.6667L51.0607 30.5163L51.1984 30.3672L51.3372 30.2186L51.477 30.0706L51.6163 29.9232L51.755 29.7759L51.8927 29.6279L52.0293 29.4799L52.1632 29.3319L52.2949 29.1828L52.4229 29.0336L52.547 28.8826L52.6669 28.7311L52.7813 28.5784L52.8904 28.4244L52.9935 28.2687L53.0902 28.1118L53.1798 27.9537L53.2624 27.7933L53.3369 27.6316L53.4033 27.467L53.4022 27.4682ZM61.5258 34.1326H50.1554V33.3725H61.5258L61.8632 33.7523L61.5258 34.132V34.1326ZM61.5258 33.3725H61.8632V33.7523L61.5258 33.3725ZM61.1884 46.0845V33.7529H61.8632V46.0845L61.5258 46.4643L61.1884 46.0845ZM61.8632 46.0845V46.4643H61.5258L61.8632 46.0845ZM50.1554 45.7048H61.5258V46.4649H50.1554L49.8179 46.0851L50.1554 45.7053V45.7048ZM50.1554 46.4649H49.8179V46.0851L50.1554 46.4649ZM50.4928 33.7529V46.0845H49.8179V33.7529L50.1554 33.3731L50.4928 33.7529ZM49.8179 33.7529V33.3731H50.1554L49.8179 33.7529ZM48.4499 64.9231H62.9473V65.6832H48.4499L48.1125 65.3034L48.4499 64.9237V64.9231ZM48.4499 65.6832H48.1125V65.3034L48.4499 65.6832ZM48.1125 32.632H48.7873V33.6501V34.6687V35.6879V36.7071V37.7269V38.7473V39.7677V40.7882V41.8092V42.8302V43.8517V44.8733V45.8949V46.9165V47.9381V48.9603V49.9825V51.0047V52.0269V53.0491V54.0712V55.0934V56.1156V57.1372V58.1588V59.1804V60.202V61.223V62.244V63.265V64.2854V65.3058H48.1125V64.2854V63.265V62.244V61.223V60.202V59.1804V58.1588V57.1372V56.1156V55.0934V54.0712V53.0491V52.0269V51.0047V49.9825V48.9603V47.9381V46.9165V45.8949V44.8733V43.8517V42.8302V41.8092V40.7882V39.7677V38.7473V37.7269V36.7071V35.6879V34.6687V33.6501V32.632ZM53.3531 24.5978V25.3579L53.6905 24.9781L53.6732 25.2663L53.6252 25.5498L53.5485 25.8274L53.4476 26.0978L53.3245 26.3628L53.1819 26.6225L53.0227 26.8781L52.8483 27.1306L52.661 27.3803L52.4623 27.6275L52.2539 27.8729L52.0379 28.1166L51.8155 28.3591L51.5887 28.6003L51.3598 28.8404L51.1293 29.0799L50.9004 29.3177L50.6742 29.5548L50.4523 29.7913L50.2369 30.0261L50.0296 30.2596L49.8325 30.492L49.6479 30.7226L49.4767 30.9508L49.3207 31.1766L49.1825 31.3989L49.0632 31.6176L48.9639 31.8315L48.8861 32.0395L48.8305 32.2422L48.797 32.4383L48.7857 32.6303H48.1108L48.1276 32.3408L48.1762 32.0568L48.2528 31.7786L48.3538 31.507L48.4769 31.2414L48.6194 30.9805L48.7787 30.7244L48.9525 30.4718L49.1399 30.2216L49.3391 29.9738L49.5469 29.7283L49.7629 29.4841L49.9853 29.241L50.2121 28.9997L50.441 28.7596L50.671 28.5201L50.8999 28.2824L51.1261 28.0453L51.348 27.8093L51.5634 27.5746L51.7707 27.341L51.9672 27.1093L52.1524 26.8793L52.3235 26.6511L52.479 26.4258L52.6172 26.2035L52.7365 25.9854L52.8359 25.7721L52.9131 25.5647L52.9687 25.3632L53.0022 25.1677L53.0135 24.9769L53.3509 24.5972L53.3531 24.5978ZM53.0157 24.9775V24.5978H53.3531L53.0157 24.9775ZM58.2028 24.9448H57.528L57.8654 25.3246H57.5803L57.3234 25.3252L57.0917 25.3258L56.885 25.3264L56.7009 25.327L56.5373 25.3282L56.3921 25.3293L56.2636 25.3305L56.1502 25.3317L56.0498 25.3329L55.9612 25.3341L55.8813 25.3359L55.8085 25.3371L55.7415 25.3388L55.6778 25.34L55.6168 25.3418L55.5542 25.3436L55.4905 25.3448L55.4219 25.3466L55.3485 25.3478L55.2675 25.3495L55.1763 25.3507L55.0742 25.3519L54.9598 25.3531L54.8302 25.3543L54.6844 25.3555L54.5198 25.3567L54.334 25.3573L54.1267 25.3579L53.8951 25.3585L53.6376 25.3591H53.352V24.599H53.6371L53.894 24.5984L54.1256 24.5978L54.3324 24.5972L54.5165 24.5966L54.6801 24.5954L54.8253 24.5942L54.9538 24.593L55.0677 24.5918L55.1676 24.5906L55.2562 24.5894L55.3361 24.5877L55.4084 24.5865L55.4753 24.5847L55.5391 24.5835L55.6001 24.5817L55.6627 24.5799L55.7264 24.5787L55.7944 24.577L55.8678 24.5758L55.9488 24.574L56.0401 24.5728L56.1416 24.5716L56.256 24.5704L56.3856 24.5692L56.5314 24.568L56.696 24.5669L56.8812 24.5663L57.0885 24.5657L57.3201 24.5651L57.5776 24.5645H57.8632L58.2007 24.9442L58.2028 24.9448ZM57.8654 24.5651H58.2028V24.9448L57.8654 24.5651ZM63.2842 32.5524H62.6093L62.598 32.3658L62.5634 32.1738L62.5057 31.9753L62.4258 31.7697L62.3232 31.5581L62.1996 31.3412L62.0565 31.1207L61.8951 30.8961L61.7174 30.6691L61.5258 30.4397L61.3217 30.2085L61.1068 29.9761L60.8839 29.742L60.6539 29.5066L60.4196 29.2701L60.182 29.033L59.9434 28.7947L59.7058 28.5558L59.471 28.3157L59.241 28.0744L59.017 27.8319L58.801 27.5871L58.5953 27.341L58.4015 27.0926L58.2212 26.8418L58.056 26.5875L57.9086 26.3289L57.7806 26.0651L57.6754 25.7953L57.596 25.5189L57.5452 25.2354L57.5274 24.9466H58.2023L58.2136 25.1332L58.2482 25.3252L58.3059 25.5237L58.3858 25.7293L58.4884 25.9409L58.612 26.1578L58.7551 26.3783L58.9165 26.6029L59.0942 26.8299L59.2858 27.0593L59.4899 27.2905L59.7048 27.5229L59.9277 27.757L60.1577 27.9924L60.392 28.2289L60.629 28.466L60.8677 28.7043L61.1052 28.9432L61.3401 29.1833L61.5701 29.4246L61.7941 29.6671L62.0101 29.912L62.2158 30.158L62.4096 30.4064L62.5899 30.6572L62.7551 30.9116L62.9025 31.1701L63.0304 31.4339L63.1357 31.7038L63.2151 31.9801L63.2658 32.2636L63.2836 32.5524H63.2842ZM62.6093 65.3034V32.5524H63.2842V65.3034L62.9467 65.6832L62.6093 65.3034ZM63.2842 65.3034V65.6832H62.9467L63.2842 65.3034ZM53.69 14.4947V24.9775H53.0151V14.4947L53.3525 14.115L53.69 14.4947ZM53.0151 14.4947V14.115H53.3525L53.0151 14.4947ZM57.8649 14.8745H53.352V14.1144H57.8649L58.2023 14.4941L57.8649 14.8739V14.8745ZM57.8649 14.1144H58.2023V14.4941L57.8649 14.1144ZM57.5274 24.9442V14.4941H58.2023V24.9442H57.5274ZM52.9136 13.6176L53.562 14.1964L53.1431 14.7925L52.4947 14.2136L52.3667 13.9165L52.9136 13.6176ZM52.4947 14.2136L52.3673 14.1001L52.3667 13.9165L52.4947 14.2136ZM53.0389 12.6661L53.0416 13.9147L52.3667 13.9165L52.364 12.6679L52.5109 12.3535L53.0389 12.6661ZM52.364 12.6679L52.3635 12.467L52.5103 12.3535L52.3635 12.6679H52.364ZM53.5431 12.4771L52.892 12.9805L52.5109 12.3535L53.162 11.8501L53.3525 11.7836L53.5431 12.4771ZM53.162 11.8501L53.2478 11.7836H53.3525L53.162 11.8501ZM57.8654 12.5437H53.3525V11.7836H57.8654L58.056 11.8501L57.8654 12.5437ZM57.8654 11.7836H57.9701L58.056 11.8501L57.8654 11.7836ZM58.3221 12.9775L57.6743 12.4771L58.0554 11.8501L58.7033 12.3505L58.8501 12.6637L58.3221 12.9769V12.9775ZM58.7033 12.3505L58.8501 12.464V12.6643L58.7033 12.3511V12.3505ZM58.1753 13.9153V12.6637H58.8501V13.9153L58.7222 14.213L58.1753 13.9153ZM58.8501 13.9153V14.0989L58.7222 14.213L58.8501 13.9153ZM57.6559 14.1964L58.3038 13.6176L58.7227 14.213L58.0749 14.7919L57.6559 14.1964ZM54.3346 8.68015V12.1627H53.6597V8.68015L53.9972 8.3004L54.3346 8.68015ZM53.6597 8.68015V8.3004H53.9972L53.6597 8.68015ZM57.2202 9.05991H53.9972V8.2998H57.2202L57.5577 8.67956L57.2202 9.05931V9.05991ZM57.2202 8.2998H57.5577V8.67956L57.2202 8.2998ZM56.8828 12.1627V8.68015H57.5577V12.1627H56.8828Z" fill="white"/>
<path d="M45.8206 88.5068C45.3952 88.5068 44.8606 88.0558 44.2169 87.1532C43.5731 86.2512 42.932 85.1655 42.2942 83.8967C41.6559 82.6279 41.1365 81.4645 40.7356 80.4061C40.4564 81.4509 40.1282 82.7399 39.7512 84.273C39.5448 85.1412 39.2471 86.3218 38.8581 87.8146C38.5419 87.8146 38.2626 87.7162 38.0198 87.5195C37.777 87.3227 37.6553 87.0821 37.6553 86.7971C37.6553 86.5938 37.7406 86.2204 37.9106 85.6776C38.7244 82.8554 39.4714 80.4233 40.1521 78.3811C40.8323 76.3394 41.6222 74.1787 42.5213 71.8988C42.0596 71.98 41.6613 72.0991 41.3272 72.255C40.9931 72.4109 40.6318 72.6041 40.2429 72.8346C40.012 72.9839 39.8664 73.0586 39.8055 73.0586C39.7202 73.0586 39.6051 72.9905 39.4589 72.8547C39.3133 72.719 39.2405 72.6035 39.2405 72.5086C40.7959 71.7625 42.1628 71.3892 43.3411 71.3892C44.0946 71.3892 44.8237 71.5249 45.5283 71.7963C46.2329 72.0677 46.8132 72.4885 47.269 73.058C47.7242 73.6275 47.9524 74.3399 47.9524 75.1951C47.9524 76.4023 47.5178 77.3351 46.6491 77.9935C45.7804 78.6513 44.8324 79.0857 43.8062 79.2961C42.7794 79.5059 41.8955 79.6114 41.1539 79.6114C41.2756 79.8555 41.3875 80.0795 41.4913 80.2828C41.5945 80.4867 41.6885 80.6692 41.7733 80.8322C42.2959 81.877 42.7544 82.7387 43.1499 83.4167C43.5443 84.0952 44.0365 84.8111 44.626 85.5638C45.2149 86.3164 45.9233 87.0732 46.7496 87.833C46.6768 88.0096 46.5459 88.166 46.3574 88.3012C46.1694 88.4369 45.9896 88.505 45.8201 88.505L45.8206 88.5068ZM41.0268 79.2872C41.9868 79.219 42.8984 79.0152 43.7605 78.6762C44.6232 78.3372 45.3338 77.8418 45.8934 77.1905C46.4524 76.5386 46.7317 75.732 46.7317 74.7684C46.7317 73.7372 46.4187 72.9875 45.7924 72.5199C45.167 72.0517 44.3923 71.8176 43.4688 71.8176C42.7397 73.4462 41.9259 75.9359 41.0263 79.2872H41.0268ZM48.6092 86.2477C48.4392 86.2477 48.2995 86.2003 48.1898 86.1054C48.0806 86.0106 48.0257 85.8749 48.0257 85.6983C48.0257 85.4814 48.1409 85.2882 48.3718 85.1181C48.6027 84.9486 48.8395 84.8639 49.0824 84.8639C49.398 84.8639 49.5561 85.0269 49.5561 85.3522C49.5561 85.5561 49.4562 85.7558 49.2557 85.9526C49.0552 86.1493 48.8395 86.2477 48.6087 86.2477H48.6092ZM53.0385 86.6951C52.5403 86.6951 52.1758 86.5256 51.9443 86.1866C51.7134 85.8477 51.5983 85.3996 51.5983 84.8431C51.5983 84.2867 51.7015 83.7035 51.9085 83.0931C52.1149 82.4827 52.3822 81.9736 52.7103 81.5665C53.0385 81.1593 53.3666 80.9555 53.6947 80.9555C53.8039 80.9555 53.9316 80.9898 54.0772 81.0574C53.9311 81.1931 53.7556 81.4912 53.5486 81.9529C53.3422 82.4145 53.1623 82.9058 53.0108 83.4279C52.8586 83.9506 52.7831 84.3744 52.7831 84.7003C52.7831 85.4737 53.0015 85.8607 53.4394 85.8607C53.6947 85.8607 53.9984 85.7114 54.351 85.4127C54.7036 85.114 55.0497 84.7205 55.3897 84.2321C55.0497 83.9198 54.7851 83.5133 54.5971 83.0113C54.4086 82.5093 54.3146 81.9866 54.3146 81.4444C54.3146 80.7386 54.476 80.1347 54.7976 79.6327C55.1197 79.1307 55.5543 78.8795 56.1009 78.8795C56.5627 78.8795 56.8875 79.0181 57.076 79.2967C57.2646 79.5746 57.3585 79.9581 57.3585 80.4464C57.3585 80.962 57.2461 81.5422 57.0212 82.1864C56.7963 82.8306 56.5018 83.4582 56.1373 84.0686C56.3562 84.2043 56.5871 84.2724 56.8299 84.2724C57.1825 84.2724 57.5471 84.1539 57.9241 83.9163C58.3006 83.6792 58.5863 83.3094 58.7808 82.8074L58.9992 83.0107C58.7683 83.6081 58.4402 84.0484 58.0148 84.3335C57.5894 84.6185 57.1521 84.7608 56.7023 84.7608C56.3741 84.7608 56.0824 84.6926 55.8271 84.5569C55.3897 85.1946 54.9252 85.7108 54.433 86.1043C53.9408 86.4978 53.4763 86.6945 53.039 86.6945L53.0385 86.6951ZM55.7173 83.7035C56.033 83.1743 56.2883 82.635 56.4833 82.0856C56.6773 81.5357 56.7751 81.0307 56.7751 80.5691C56.7751 80.1892 56.7235 79.9041 56.6197 79.7145C56.5165 79.5248 56.3861 79.4294 56.228 79.4294C56.058 79.4294 55.8847 79.5213 55.7086 79.7044C55.5321 79.8875 55.3865 80.1382 55.2713 80.4571C55.1556 80.7759 55.098 81.1255 55.098 81.5054C55.098 81.9262 55.1496 82.3298 55.2528 82.7162C55.3561 83.1026 55.5114 83.4321 55.7179 83.7035H55.7173ZM59.9461 86.6548C59.448 86.6548 59.0802 86.4646 58.8433 86.0853C58.6059 85.7054 58.488 85.1964 58.488 84.5587C58.488 83.3378 58.8645 81.6791 59.6185 79.5829C60.3715 77.4868 61.213 75.5975 62.1431 73.915C63.0726 72.2325 63.7436 71.3909 64.157 71.3909C64.3271 71.3909 64.4699 71.5569 64.5851 71.8893C64.7003 72.2218 64.7584 72.5578 64.7584 72.8968C64.7584 73.5209 64.5308 74.44 64.075 75.6543C63.6192 76.8687 63.021 78.1001 62.2795 79.3482C61.5379 80.5969 60.748 81.6074 59.9103 82.3807C59.7522 83.1678 59.6729 83.8528 59.6729 84.4366C59.6729 85.4814 59.9402 86.0035 60.4747 86.0035C60.9246 86.0035 61.3831 85.6853 61.8508 85.0476C62.3186 84.4099 62.7347 83.6431 63.0993 82.7476L63.3731 82.9106C62.3278 85.4067 61.1859 86.6554 59.9467 86.6554L59.9461 86.6548ZM60.0738 81.6891C60.742 80.9424 61.395 80.0031 62.0334 78.87C62.6712 77.7369 63.1905 76.6517 63.5915 75.614C63.9924 74.5757 64.1929 73.8267 64.1929 73.365C64.1929 73.1475 64.1505 73.0396 64.0652 73.0396C63.8952 73.0396 63.5458 73.5043 63.0172 74.4335C62.4886 75.3628 61.9448 76.4994 61.3858 77.8429C60.8268 79.1859 60.3894 80.4683 60.0733 81.6891H60.0738ZM66.2345 77.2521C66.0161 77.2521 65.8368 77.1946 65.6966 77.079C65.557 76.9641 65.4869 76.7975 65.4869 76.5806C65.4869 76.3092 65.6331 76.0645 65.9243 75.8481C66.216 75.6312 66.5137 75.5228 66.8174 75.5228C67.2183 75.5228 67.4188 75.7332 67.4188 76.1539C67.4188 76.4117 67.2944 76.6595 67.0456 76.8965C66.7967 77.1342 66.5262 77.2527 66.2345 77.2527V77.2521ZM64.0473 86.5736C63.5974 86.5736 63.2514 86.4142 63.0085 86.0954C62.7652 85.7765 62.644 85.3664 62.644 84.8639C62.644 84.3347 62.7809 83.6022 63.0536 82.6658C63.3269 81.7294 63.6675 80.9086 64.0744 80.2028C64.4813 79.497 64.8796 79.1444 65.268 79.1444C65.3777 79.1444 65.4717 79.1847 65.5505 79.2664C65.6293 79.3476 65.6695 79.4567 65.6695 79.5918C65.6695 79.782 65.475 80.2366 65.086 80.9555C64.6851 81.7022 64.3662 82.3701 64.1288 82.9603C63.8919 83.5506 63.7735 84.1101 63.7735 84.6393C63.7735 85.114 63.8435 85.4364 63.9832 85.6064C64.1228 85.7759 64.351 85.8607 64.6666 85.8607C65.6146 85.8607 66.5501 84.8224 67.4737 82.747L67.6377 82.9503C67.2976 84.0905 66.7967 84.9789 66.134 85.6165C65.4717 86.2542 64.7763 86.573 64.0473 86.573V86.5736ZM68.3853 86.6957C67.8871 86.6957 67.5226 86.5262 67.2911 86.1872C67.0602 85.8482 66.9451 85.4002 66.9451 84.8437C66.9451 84.2872 67.0483 83.7041 67.2553 83.0937C67.4617 82.4833 67.729 81.9742 68.0571 81.5671C68.3853 81.1599 68.7134 80.956 69.0415 80.956C69.1507 80.956 69.2784 80.9904 69.424 81.058C69.2779 81.1937 69.1024 81.4918 68.8954 81.9535C68.689 82.4151 68.5097 82.9064 68.3576 83.4285C68.206 83.9512 68.1299 84.375 68.1299 84.7009C68.1299 85.4743 68.3489 85.8613 68.7862 85.8613C69.0415 85.8613 69.3452 85.7119 69.6973 85.4133C70.0498 85.1146 70.3959 84.7211 70.736 84.2327C70.3959 83.9204 70.1319 83.5139 69.9434 83.0119C69.7554 82.5099 69.6609 81.9872 69.6609 81.445C69.6609 80.7391 69.8222 80.1353 70.1438 79.6333C70.466 79.1313 70.9001 78.8801 71.4471 78.8801C71.9089 78.8801 72.2338 79.0187 72.4223 79.2973C72.6103 79.5752 72.7048 79.9586 72.7048 80.447C72.7048 80.9626 72.5923 81.5428 72.3674 82.187C72.1425 82.8311 71.8481 83.4587 71.4835 84.0692C71.7019 84.2049 71.9328 84.273 72.1762 84.273C72.5288 84.273 72.8933 84.1545 73.2698 83.9169C73.6463 83.6798 73.932 83.31 74.1265 82.808L74.3449 83.0113C74.114 83.6087 73.7859 84.049 73.3605 84.3341C72.9351 84.6191 72.4978 84.7614 72.048 84.7614C71.7198 84.7614 71.4281 84.6932 71.1728 84.5575C70.7354 85.1952 70.271 85.7113 69.7788 86.1049C69.2865 86.4984 68.8221 86.6951 68.3847 86.6951L68.3853 86.6957ZM71.0647 83.7041C71.3803 83.1749 71.6356 82.6356 71.8301 82.0862C72.0241 81.5362 72.1219 81.0313 72.1219 80.5697C72.1219 80.1898 72.0703 79.9047 71.967 79.7151C71.8638 79.5254 71.7334 79.43 71.5753 79.43C71.4053 79.43 71.232 79.5219 71.056 79.705C70.88 79.8881 70.7338 80.1388 70.6186 80.4577C70.5029 80.7765 70.4453 81.1261 70.4453 81.506C70.4453 81.9268 70.497 82.3304 70.6002 82.7168C70.7034 83.1032 70.8588 83.4327 71.0652 83.7041H71.0647Z" fill="white"/>
</svg>
