<svg width="32" height="32" viewBox="0 0 32 32" fill="none" xmlns="http://www.w3.org/2000/svg">
<path d="M30.5292 11.7742H23.3527L18.3078 2.04688C18.1269 1.69813 17.8211 1.44069 17.4466 1.32194C17.0721 1.20319 16.6738 1.23744 16.3251 1.41832C16.2038 1.48119 16.0953 1.55894 16 1.64788C15.9046 1.55901 15.7961 1.48119 15.6749 1.41832C15.3262 1.23744 14.9278 1.20326 14.5533 1.32194C14.1788 1.44063 13.873 1.69813 13.6921 2.04688L8.3745 12.3001C8.19363 12.6489 8.15938 13.0472 8.27812 13.4217C8.31862 13.5495 8.3765 13.6686 8.4475 13.7782H1.47075C1.17669 13.7782 0.9375 13.539 0.9375 13.2449C0.9375 12.9509 1.17675 12.7117 1.47075 12.7117H6.81481C7.07369 12.7117 7.28356 12.5019 7.28356 12.2429C7.28356 11.9841 7.07369 11.7742 6.81481 11.7742H1.47075C0.659812 11.7742 0 12.434 0 13.2449C0 13.9175 0.453875 14.4856 1.07131 14.6601L3.78625 29.1395C3.96094 30.0715 4.776 30.748 5.72425 30.748H26.2758C27.2241 30.748 28.0391 30.0715 28.2138 29.1395L30.9287 14.6601C31.5461 14.4856 32 13.9175 32 13.2449C32 12.4339 31.3402 11.7742 30.5292 11.7742ZM16.7567 2.25063C16.8831 2.18507 17.0276 2.17263 17.1633 2.21569C17.2991 2.25869 17.41 2.35207 17.4756 2.47851L22.7932 12.7318C22.8588 12.8583 22.8712 13.0027 22.8281 13.1384C22.7851 13.2743 22.6917 13.3851 22.5653 13.4507C22.4389 13.5163 22.2944 13.5287 22.1586 13.4857C22.0228 13.4427 21.9119 13.3493 21.8464 13.2229L16.5288 2.96951C16.3934 2.70851 16.4957 2.38601 16.7567 2.25063ZM22.9987 14.7158L22.5551 19.2894H16.4688V14.7158H22.9987ZM16 3.98613L21.0142 13.6544C21.0364 13.6971 21.0605 13.7384 21.0863 13.7782H10.9137C10.9395 13.7384 10.9636 13.6971 10.9858 13.6544L11.4747 12.7118H18.6094C18.8682 12.7118 19.0781 12.5019 19.0781 12.243C19.0781 11.9841 18.8682 11.7743 18.6094 11.7743H11.9609L16 3.98613ZM9.20675 12.7318L14.5244 2.47844C14.59 2.35201 14.7009 2.25863 14.8367 2.21563C14.8898 2.19876 14.9443 2.19044 14.9984 2.19044C15.0828 2.19044 15.1664 2.21069 15.2433 2.25057C15.5043 2.38601 15.6066 2.70844 15.4712 2.96944L10.1535 13.2228C10.0879 13.3492 9.97706 13.4426 9.84125 13.4856C9.70556 13.5286 9.56112 13.5162 9.43462 13.4506C9.30819 13.385 9.21481 13.2741 9.17181 13.1383C9.12875 13.0026 9.14119 12.8583 9.20675 12.7318ZM2.03556 14.7158H8.05944L8.503 19.2894H2.89313L2.03556 14.7158ZM3.06894 20.2268H8.59394L9.0375 24.8004H3.92644L3.06894 20.2268ZM5.72419 29.8105C5.22681 29.8105 4.79931 29.4557 4.70769 28.9668L4.10225 25.7379H9.12838L9.52337 29.8105H5.72419ZM15.5312 29.8105H10.4652L10.0702 25.7379H15.5312V29.8105ZM15.5312 24.8004H9.97931L9.53575 20.2268H15.5312V24.8004ZM15.5312 19.2894H9.44487L9.00131 14.7158H15.5312V19.2894ZM21.5348 29.8105H16.4688V25.7379H21.9298L21.5348 29.8105ZM22.0207 24.8005H16.4688V20.2269H22.4643L22.0207 24.8005ZM27.2923 28.9668C27.2007 29.4557 26.7731 29.8105 26.2757 29.8105H22.4766L22.8716 25.7379H27.8978L27.2923 28.9668ZM28.0736 24.8005H22.9626L23.4061 20.2269H28.9311L28.0736 24.8005ZM29.1069 19.2893H23.4971L23.9406 14.7157H29.9644L29.1069 19.2893ZM30.5292 13.7783H30.5216C30.5213 13.7783 30.5211 13.7783 30.5208 13.7783H23.5525C23.6235 13.6687 23.6813 13.5496 23.7219 13.4218C23.7958 13.1884 23.8104 12.9458 23.7671 12.7118H30.5292C30.8233 12.7118 31.0625 12.951 31.0625 13.245C31.0625 13.539 30.8232 13.7783 30.5292 13.7783Z" fill="#688800"/>
</svg>
