<svg width="64" height="64" viewBox="0 0 64 64" fill="none" xmlns="http://www.w3.org/2000/svg">
<path d="M36.288 51C36.16 51 36.064 50.984 36 50.952L35.664 50.904H35.568C35.056 50.136 34.416 48.888 33.648 47.16L32.832 45.336L30.432 40.344L29.952 39.288C29.664 38.808 29.472 38.424 29.376 38.136C29.28 37.848 28.928 37.304 28.32 36.504C27.744 35.736 27.456 35.112 27.456 34.632C27.456 34.28 27.824 33.192 28.56 31.368L31.056 25.656C31.92 23.768 32.464 22.472 32.688 21.768C32.688 21.672 32.784 21.368 32.976 20.856C33.232 19.768 33.536 18.92 33.888 18.312C34.08 17.928 34.288 17.72 34.512 17.688L35.136 18.168C35.008 19.128 34.624 20.392 33.984 21.96C33.376 23.496 32.672 25.064 31.872 26.664C31.104 28.2 30.448 29.704 29.904 31.176C29.392 32.616 29.136 33.752 29.136 34.584C29.136 34.84 30.224 37.208 32.4 41.688C34.608 46.168 35.984 48.856 36.528 49.752L36.96 50.088C36.896 50.28 36.8 50.488 36.672 50.712C36.544 50.904 36.416 51 36.288 51Z" fill="#4A4A4A"/>
</svg>
